<svg xmlns="http://www.w3.org/2000/svg" width="24" height="24" viewBox="0 0 24 24">
    <g fill="none" fill-rule="evenodd">
        <g>
            <g>
                <g>
                    <g>
                        <g>
                            <g>
                                <path d="M0 0H24V24H0z" transform="translate(-366 -850) translate(320 626) translate(31 30) translate(0 101) translate(0 70) translate(15 23)"/>
                                <g fill="#1DA1F2" fill-rule="nonzero">
                                    <path d="M7.523 19.52c9.027 0 13.963-7.479 13.963-13.964 0-.212-.004-.424-.014-.634.958-.693 1.791-1.557 2.448-2.542-.88.391-1.825.654-2.818.773 1.013-.607 1.791-1.569 2.158-2.714-.948.562-1.998.97-3.116 1.191C19.248.676 17.974.08 16.56.08c-2.71 0-4.907 2.197-4.907 4.906 0 .385.043.76.127 1.12C7.702 5.9 4.085 3.946 1.665.977 1.243 1.703 1 2.546 1 3.444c0 1.703.867 3.206 2.184 4.086-.805-.025-1.561-.246-2.223-.614v.062c0 2.377 1.691 4.362 3.937 4.811-.412.113-.846.173-1.294.173-.316 0-.623-.031-.922-.089.624 1.95 2.436 3.37 4.584 3.409-1.68 1.316-3.796 2.1-6.095 2.1-.396 0-.787-.022-1.17-.067 2.171 1.392 4.75 2.204 7.522 2.204" transform="translate(-366 -850) translate(320 626) translate(31 30) translate(0 101) translate(0 70) translate(15 23) translate(0 2)"/>
                                </g>
                            </g>
                        </g>
                    </g>
                </g>
            </g>
        </g>
    </g>
</svg>
