<svg xmlns="http://www.w3.org/2000/svg" width="24" height="24" viewBox="0 0 24 24">
    <g fill="none" fill-rule="evenodd">
        <g>
            <g>
                <g>
                    <g>
                        <g transform="translate(-366 -780) translate(320 626) translate(31 30) translate(0 101) translate(15 23)">
                            <circle cx="12" cy="12" r="12" fill="#FFF"/>
                            <path fill="#1977F3" fill-rule="nonzero" d="M24 12.073C24 5.406 18.627 0 12 0S0 5.406 0 12.073C0 18.098 4.388 23.093 10.125 24v-8.436H7.077v-3.491h3.048v-2.66c0-3.026 1.792-4.698 4.533-4.698 1.313 0 2.686.236 2.686.236v2.97h-1.513c-1.49 0-1.956.931-1.956 1.887v2.265h3.328l-.532 3.49h-2.796V24C19.612 23.095 24 18.1 24 12.073z"/>
                        </g>
                    </g>
                </g>
            </g>
        </g>
    </g>
</svg>
